<svg width="625" height="480" xmlns="http://www.w3.org/2000/svg" xmlns:xlink="http://www.w3.org/1999/xlink" overflow="hidden"><defs><clipPath id="clip0"><rect x="578" y="127" width="625" height="480"/></clipPath><clipPath id="clip1"><rect x="579" y="128" width="624" height="478"/></clipPath><clipPath id="clip2"><rect x="579" y="128" width="624" height="478"/></clipPath><clipPath id="clip3"><rect x="579" y="128" width="624" height="478"/></clipPath><clipPath id="clip4"><rect x="579" y="128" width="624" height="478"/></clipPath><clipPath id="clip5"><rect x="579" y="128" width="624" height="478"/></clipPath><clipPath id="clip6"><rect x="579" y="128" width="624" height="478"/></clipPath><clipPath id="clip7"><rect x="579" y="128" width="624" height="478"/></clipPath><clipPath id="clip8"><rect x="579" y="128" width="624" height="478"/></clipPath><clipPath id="clip9"><rect x="579" y="128" width="624" height="478"/></clipPath><clipPath id="clip10"><rect x="579" y="128" width="624" height="478"/></clipPath><clipPath id="clip11"><rect x="579" y="128" width="624" height="478"/></clipPath><clipPath id="clip12"><rect x="579" y="128" width="624" height="478"/></clipPath><clipPath id="clip13"><rect x="579" y="128" width="624" height="478"/></clipPath><clipPath id="clip14"><rect x="579" y="128" width="624" height="478"/></clipPath><clipPath id="clip15"><rect x="579" y="128" width="624" height="478"/></clipPath><clipPath id="clip16"><rect x="579" y="128" width="624" height="478"/></clipPath><clipPath id="clip17"><rect x="579" y="128" width="624" height="478"/></clipPath><clipPath id="clip18"><rect x="690" y="183" width="427" height="344"/></clipPath><clipPath id="clip19"><rect x="579" y="128" width="624" height="478"/></clipPath><clipPath id="clip20"><rect x="579" y="128" width="624" height="478"/></clipPath></defs><g clip-path="url(#clip0)" transform="translate(-578 -127)"><g clip-path="url(#clip1)"><g clip-path="url(#clip2)"><g clip-path="url(#clip3)"><g clip-path="url(#clip4)"><g clip-path="url(#clip5)"><path d="M111.639 398.164 537.058 398.164" stroke="#000000" stroke-width="1.26093" stroke-linecap="square" stroke-linejoin="round" stroke-miterlimit="10" fill="none" transform="matrix(1 0 0 1.00031 579 128.264)"/><path d="M111.639 398.164 111.639 391.468" stroke="#000000" stroke-width="1.26093" stroke-linejoin="round" stroke-miterlimit="10" fill="none" transform="matrix(1 0 0 1.00031 579 128.264)"/><path d="M196.706 398.164 196.706 391.468" stroke="#000000" stroke-width="1.26093" stroke-linejoin="round" stroke-miterlimit="10" fill="none" transform="matrix(1 0 0 1.00031 579 128.264)"/><path d="M281.773 398.164 281.773 391.468" stroke="#000000" stroke-width="1.26093" stroke-linejoin="round" stroke-miterlimit="10" fill="none" transform="matrix(1 0 0 1.00031 579 128.264)"/><path d="M366.933 398.164 366.933 391.468" stroke="#000000" stroke-width="1.26093" stroke-linejoin="round" stroke-miterlimit="10" fill="none" transform="matrix(1 0 0 1.00031 579 128.264)"/><path d="M452 398.164 452 391.468" stroke="#000000" stroke-width="1.26093" stroke-linejoin="round" stroke-miterlimit="10" fill="none" transform="matrix(1 0 0 1.00031 579 128.264)"/><path d="M537.058 398.164 537.058 391.468" stroke="#000000" stroke-width="1.26093" stroke-linejoin="round" stroke-miterlimit="10" fill="none" transform="matrix(1 0 0 1.00031 579 128.264)"/><path d="M111.639 55.3841 537.058 55.3841" stroke="#000000" stroke-width="1.26093" stroke-linecap="square" stroke-linejoin="round" stroke-miterlimit="10" fill="none" transform="matrix(1 0 0 1.00031 579 128.264)"/><path d="M111.639 398.164 111.639 55.3841" stroke="#000000" stroke-width="1.26093" stroke-linecap="square" stroke-linejoin="round" stroke-miterlimit="10" fill="none" transform="matrix(1 0 0 1.00031 579 128.264)"/><path d="M111.639 398.164 118.331 398.164" stroke="#000000" stroke-width="1.26093" stroke-linejoin="round" stroke-miterlimit="10" fill="none" transform="matrix(1 0 0 1.00031 579 128.264)"/><path d="M111.639 329.588 118.331 329.588" stroke="#000000" stroke-width="1.26093" stroke-linejoin="round" stroke-miterlimit="10" fill="none" transform="matrix(1 0 0 1.00031 579 128.264)"/><path d="M111.639 261.011 118.331 261.011" stroke="#000000" stroke-width="1.26093" stroke-linejoin="round" stroke-miterlimit="10" fill="none" transform="matrix(1 0 0 1.00031 579 128.264)"/><path d="M111.639 192.537 118.331 192.537" stroke="#000000" stroke-width="1.26093" stroke-linejoin="round" stroke-miterlimit="10" fill="none" transform="matrix(1 0 0 1.00031 579 128.264)"/><path d="M111.639 123.96 118.331 123.96" stroke="#000000" stroke-width="1.26093" stroke-linejoin="round" stroke-miterlimit="10" fill="none" transform="matrix(1 0 0 1.00031 579 128.264)"/><path d="M111.639 55.3841 118.331 55.3841" stroke="#000000" stroke-width="1.26093" stroke-linejoin="round" stroke-miterlimit="10" fill="none" transform="matrix(1 0 0 1.00031 579 128.264)"/><path d="M537.058 398.164 537.058 55.3841" stroke="#000000" stroke-width="1.26093" stroke-linecap="square" stroke-linejoin="round" stroke-miterlimit="10" fill="none" transform="matrix(1 0 0 1.00031 579 128.264)"/></g><g clip-path="url(#clip6)"><text font-family="Times New Roman,Times New Roman_MSFontService,sans-serif" font-weight="400" font-size="150" transform="matrix(0.0969949 0 0 0.0970251 681.524 545)">0</text><text font-family="Times New Roman,Times New Roman_MSFontService,sans-serif" font-weight="400" font-size="150" transform="matrix(0.0969949 0 0 0.0970251 688.798 545)">.</text><text font-family="Times New Roman,Times New Roman_MSFontService,sans-serif" font-weight="400" font-size="150" transform="matrix(0.0969949 0 0 0.0970251 692.484 545)">0</text></g><g clip-path="url(#clip7)"><text font-family="Times New Roman,Times New Roman_MSFontService,sans-serif" font-weight="400" font-size="150" transform="matrix(0.0969949 0 0 0.0970251 766.588 545)">0</text><text font-family="Times New Roman,Times New Roman_MSFontService,sans-serif" font-weight="400" font-size="150" transform="matrix(0.0969949 0 0 0.0970251 773.863 545)">.</text><text font-family="Times New Roman,Times New Roman_MSFontService,sans-serif" font-weight="400" font-size="150" transform="matrix(0.0969949 0 0 0.0970251 777.549 545)">1</text></g><g clip-path="url(#clip8)"><text font-family="Times New Roman,Times New Roman_MSFontService,sans-serif" font-weight="400" font-size="150" transform="matrix(0.0969949 0 0 0.0970251 851.653 545)">0</text><text font-family="Times New Roman,Times New Roman_MSFontService,sans-serif" font-weight="400" font-size="150" transform="matrix(0.0969949 0 0 0.0970251 858.927 545)">.</text><text font-family="Times New Roman,Times New Roman_MSFontService,sans-serif" font-weight="400" font-size="150" transform="matrix(0.0969949 0 0 0.0970251 862.613 545)">2</text></g><g clip-path="url(#clip9)"><text font-family="Times New Roman,Times New Roman_MSFontService,sans-serif" font-weight="400" font-size="150" transform="matrix(0.0969949 0 0 0.0970251 936.814 545)">0</text><text font-family="Times New Roman,Times New Roman_MSFontService,sans-serif" font-weight="400" font-size="150" transform="matrix(0.0969949 0 0 0.0970251 944.089 545)">.</text><text font-family="Times New Roman,Times New Roman_MSFontService,sans-serif" font-weight="400" font-size="150" transform="matrix(0.0969949 0 0 0.0970251 947.775 545)">3</text></g><g clip-path="url(#clip10)"><text font-family="Times New Roman,Times New Roman_MSFontService,sans-serif" font-weight="400" font-size="150" transform="matrix(0.0969949 0 0 0.0970251 1021.88 545)">0</text><text font-family="Times New Roman,Times New Roman_MSFontService,sans-serif" font-weight="400" font-size="150" transform="matrix(0.0969949 0 0 0.0970251 1029.15 545)">.</text><text font-family="Times New Roman,Times New Roman_MSFontService,sans-serif" font-weight="400" font-size="150" transform="matrix(0.0969949 0 0 0.0970251 1032.84 545)">4</text></g><g clip-path="url(#clip11)"><text font-family="Times New Roman,Times New Roman_MSFontService,sans-serif" font-weight="400" font-size="150" transform="matrix(0.0969949 0 0 0.0970251 1106.94 545)">0</text><text font-family="Times New Roman,Times New Roman_MSFontService,sans-serif" font-weight="400" font-size="150" transform="matrix(0.0969949 0 0 0.0970251 1114.22 545)">.</text><text font-family="Times New Roman,Times New Roman_MSFontService,sans-serif" font-weight="400" font-size="150" transform="matrix(0.0969949 0 0 0.0970251 1117.9 545)">5</text></g><g clip-path="url(#clip12)"><text font-family="Times New Roman,Times New Roman_MSFontService,sans-serif" font-weight="400" font-size="150" transform="matrix(0.0969949 0 0 0.0970251 665.131 531)">0</text><text font-family="Times New Roman,Times New Roman_MSFontService,sans-serif" font-weight="400" font-size="150" transform="matrix(0.0969949 0 0 0.0970251 672.406 531)">.</text><text font-family="Times New Roman,Times New Roman_MSFontService,sans-serif" font-weight="400" font-size="150" transform="matrix(0.0969949 0 0 0.0970251 676.092 531)">0</text></g><g clip-path="url(#clip13)"><text font-family="Times New Roman,Times New Roman_MSFontService,sans-serif" font-weight="400" font-size="150" transform="matrix(0.0969949 0 0 0.0970251 665.131 462)">0</text><text font-family="Times New Roman,Times New Roman_MSFontService,sans-serif" font-weight="400" font-size="150" transform="matrix(0.0969949 0 0 0.0970251 672.406 462)">.</text><text font-family="Times New Roman,Times New Roman_MSFontService,sans-serif" font-weight="400" font-size="150" transform="matrix(0.0969949 0 0 0.0970251 676.092 462)">1</text></g><g clip-path="url(#clip14)"><text font-family="Times New Roman,Times New Roman_MSFontService,sans-serif" font-weight="400" font-size="150" transform="matrix(0.0969949 0 0 0.0970251 665.131 394)">0</text><text font-family="Times New Roman,Times New Roman_MSFontService,sans-serif" font-weight="400" font-size="150" transform="matrix(0.0969949 0 0 0.0970251 672.406 394)">.</text><text font-family="Times New Roman,Times New Roman_MSFontService,sans-serif" font-weight="400" font-size="150" transform="matrix(0.0969949 0 0 0.0970251 676.092 394)">2</text></g><g clip-path="url(#clip15)"><text font-family="Times New Roman,Times New Roman_MSFontService,sans-serif" font-weight="400" font-size="150" transform="matrix(0.0969949 0 0 0.0970251 665.131 325)">0</text><text font-family="Times New Roman,Times New Roman_MSFontService,sans-serif" font-weight="400" font-size="150" transform="matrix(0.0969949 0 0 0.0970251 672.406 325)">.</text><text font-family="Times New Roman,Times New Roman_MSFontService,sans-serif" font-weight="400" font-size="150" transform="matrix(0.0969949 0 0 0.0970251 676.092 325)">3</text></g><g clip-path="url(#clip16)"><text font-family="Times New Roman,Times New Roman_MSFontService,sans-serif" font-weight="400" font-size="150" transform="matrix(0.0969949 0 0 0.0970251 665.131 256)">0</text><text font-family="Times New Roman,Times New Roman_MSFontService,sans-serif" font-weight="400" font-size="150" transform="matrix(0.0969949 0 0 0.0970251 672.406 256)">.</text><text font-family="Times New Roman,Times New Roman_MSFontService,sans-serif" font-weight="400" font-size="150" transform="matrix(0.0969949 0 0 0.0970251 676.092 256)">4</text></g><g clip-path="url(#clip17)"><text font-family="Times New Roman,Times New Roman_MSFontService,sans-serif" font-weight="400" font-size="150" transform="matrix(0.0969949 0 0 0.0970251 665.131 188)">0</text><text font-family="Times New Roman,Times New Roman_MSFontService,sans-serif" font-weight="400" font-size="150" transform="matrix(0.0969949 0 0 0.0970251 672.406 188)">.</text><text font-family="Times New Roman,Times New Roman_MSFontService,sans-serif" font-weight="400" font-size="150" transform="matrix(0.0969949 0 0 0.0970251 676.092 188)">5</text></g><g clip-path="url(#clip18)"><path d="M111.639 398.164 112.514 395.446 113.388 392.729 114.161 390.019 115.036 387.395 115.911 384.686 116.786 382.061 117.558 379.538 118.433 376.922 119.308 374.399 120.174 371.783 120.955 369.261 121.829 366.831 122.696 364.317 123.571 361.886 124.445 359.465 125.218 357.035 126.092 354.614 126.967 352.192 127.842 349.865 128.615 347.537 129.49 345.208 130.364 342.88 131.23 340.645 132.105 338.418 132.887 336.09 133.753 333.956 134.628 331.722 135.502 329.495 136.275 327.362 137.15 325.228 138.025 323.094 138.9 320.952 139.672 318.818 140.547 316.787 141.421 314.747 142.288 312.715 143.163 310.675 143.943 308.634 144.81 306.695 145.684 304.663 146.559 302.725 147.332 300.777 148.206 298.838 149.081 297.001 149.956 295.062 150.831 293.217 151.604 291.372 152.478 289.526 153.353 287.689 154.219 285.945 155.001 284.099 155.867 282.355 156.741 280.602 157.616 278.858 158.389 277.114 159.264 275.371 160.139 273.72 161.013 272.069 161.887 270.426 162.66 268.775 163.535 267.124 164.41 265.473 165.276 263.924 166.057 262.273 166.932 260.723 167.798 259.174 168.673 257.617 169.454 256.068 170.32 254.611 171.195 253.062 172.07 251.606 172.945 250.149 173.717 248.693 174.592 247.237 175.467 245.789 176.333 244.426 177.115 242.97 177.989 241.615 178.855 240.253 179.73 238.898 180.605 237.543 181.378 236.18 182.252 234.826 183.126 233.564 184.001 232.303 184.774 230.948 185.649 229.687 186.524 228.425 187.398 227.163 188.171 225.995 189.046 224.733 189.912 223.574 190.787 222.312 191.661 221.152 192.434 219.984 193.309 218.824 194.184 217.757 195.059 216.59 195.831 215.43 196.706 214.363 197.581 213.296 198.455 212.128 199.322 211.061 200.102 209.994 200.977 209.02 201.844 207.953 202.718 206.887 203.491 205.922 204.366 204.855 205.24 203.881 206.115 202.916 206.888 201.942 207.763 200.977 208.637 200.004 209.512 199.132 210.378 198.159 211.16 197.193 212.035 196.321 212.901 195.441 213.775 194.569 214.557 193.697 215.423 192.825 216.298 191.953 217.173 191.08 218.047 190.301 218.82 189.429 219.694 188.659 220.569 187.778 221.436 187.008 222.216 186.229 223.091 185.45 223.957 184.68 224.832 183.901 225.613 183.123 226.479 182.445 227.354 181.674 228.229 180.989 229.104 180.312 229.877 179.54 230.751 178.855 231.626 178.178 232.501 177.501 233.274 176.824 234.149 176.146 235.023 175.562 235.889 174.885 236.671 174.301 237.537 173.623 238.412 173.039 239.286 172.455 240.16 171.777 240.933 171.193 241.808 170.618 242.683 170.033 243.557 169.551 244.33 168.967 245.205 168.382 246.08 167.9 246.946 167.316 247.821 166.833 248.602 166.249 249.468 165.766 250.343 165.275 251.218 164.792 251.991 164.31 252.865 163.827 253.74 163.337 254.615 162.854 255.388 162.465 256.262 161.982 257.136 161.593 258.003 161.11 258.877 160.721 259.659 160.238 260.525 159.849 261.399 159.459 262.274 159.07 263.047 158.68 263.922 158.3 264.797 157.91 265.671 157.521 266.546 157.131 267.319 156.843 268.194 156.454 269.06 156.166 269.935 155.777 270.716 155.48 271.582 155.099 272.457 154.803 273.332 154.515 274.104 154.218 274.979 153.931 275.854 153.643 276.728 153.346 277.603 153.059 278.375 152.771 279.25 152.474 280.125 152.28 280.991 151.992 281.773 151.704 282.647 151.509 283.513 151.213 284.388 151.018 285.161 150.823 286.036 150.536 286.911 150.341 287.785 150.146 288.66 149.951 289.433 149.757 290.308 149.562 291.182 149.376 292.048 149.181 292.83 148.986 293.704 148.885 294.571 148.69 295.446 148.495 296.319 148.402 297.092 148.207 297.967 148.114 298.842 147.919 299.717 147.818 300.489 147.623 301.364 147.53 302.239 147.428 303.105 147.335 303.886 147.242 304.761 147.14 305.627 147.047 306.502 146.946 307.377 146.853 308.15 146.751 309.024 146.658 309.899 146.556 310.774 146.463 311.547 146.463 312.422 146.361 313.296 146.268 314.17 146.268 315.037 146.167 315.818 146.167 316.685 146.167 317.559 146.074 318.433 146.074 319.206 146.074 320.081 145.981 320.956 145.981 321.831 145.981 322.603 145.981 323.478 145.981 324.353 145.981 325.228 145.981 326.094 145.981 326.875 145.981 327.75 145.981 328.616 145.981 329.491 146.074 330.272 146.074 331.138 146.074 332.013 146.074 332.888 146.167 333.661 146.167 334.535 146.268 335.409 146.268 336.284 146.361 337.15 146.361 337.932 146.463 338.806 146.556 339.672 146.556 340.547 146.658 341.329 146.751 342.195 146.853 343.07 146.853 343.944 146.946 344.819 147.047 345.592 147.14 346.467 147.242 347.342 147.335 348.216 147.428 348.989 147.53 349.864 147.623 350.73 147.725 351.605 147.818 352.385 148.012 353.252 148.114 354.126 148.207 355.001 148.309 355.876 148.495 356.648 148.597 357.523 148.69 358.398 148.885 359.273 148.986 360.046 149.181 360.92 149.274 361.795 149.469 362.661 149.562 363.536 149.757 364.309 149.858 365.184 150.053 366.058 150.248 366.933 150.341 367.706 150.536 368.581 150.73 369.456 150.925 370.329 151.018 371.103 151.213 371.977 151.408 372.852 151.602 373.719 151.797 374.592 151.992 375.374 152.187 376.24 152.381 377.115 152.576 377.99 152.771 378.762 152.957 379.637 153.152 380.512 153.346 381.387 153.541 382.16 153.736 383.034 153.931 383.909 154.218 384.775 154.413 385.65 154.608 386.431 154.803 387.297 155.099 388.172 155.285 389.047 155.48 389.82 155.777 390.695 155.971 391.568 156.166 392.443 156.454 393.318 156.649 394.091 156.936 394.966 157.131 395.84 157.419 396.706 157.614 397.488 157.91 398.354 158.105 399.229 158.393 400.104 158.587 400.876 158.875 401.751 159.07 402.626 159.366 403.501 159.654 404.376 159.849 405.148 160.137 406.023 160.432 406.898 160.721 407.764 160.916 408.545 161.204 409.419 161.499 410.286 161.788 411.16 161.982 412.035 162.27 412.808 162.566 413.682 162.854 414.557 163.142 415.432 163.438 416.205 163.726 417.08 164.022 417.954 164.31 418.82 164.598 419.602 164.792 420.477 165.089 421.343 165.377 422.217 165.664 423.092 166.054 423.865 166.342 424.74 166.638 425.615 166.926 426.489 167.222 427.262 167.51 428.137 167.798 429.011 168.095 429.878 168.382 430.752 168.67 431.533 169.06 432.399 169.356 433.274 169.644 434.149 169.932 434.922 170.228 435.796 170.618 436.671 170.905 437.546 171.193 438.319 171.49 439.193 171.879 440.068 172.167 440.943 172.455 441.809 172.751 442.591 173.132 443.465 173.429 444.331 173.716 445.206 174.106 445.979 174.394 446.854 174.69 447.729 175.08 448.602 175.367 449.375 175.757 450.25 176.045 451.125 176.341 452 176.722 452.866 177.018 453.647 177.408 454.522 177.696 455.388 178.085 456.263 178.373 457.044 178.762 457.91 179.05 458.785 179.347 459.66 179.735 460.535 180.024 461.307 180.413 462.182 180.802 463.057 181.09 463.923 181.479 464.705 181.768 465.578 182.157 466.445 182.445 467.32 182.834 468.101 183.123 468.968 183.511 469.842 183.901 470.716 184.197 471.591 184.578 472.364 184.874 473.239 185.264 474.113 185.645 474.988 185.941 475.761 186.331 476.636 186.619 477.502 187.008 478.377 187.398 479.251 187.685 480.024 188.075 480.899 188.464 481.774 188.752 482.649 189.142 483.421 189.531 484.296 189.819 485.171 190.208 486.045 190.598 486.817 190.979 487.692 191.275 488.567 191.665 489.433 192.054 490.308 192.342 491.089 192.732 491.955 193.121 492.83 193.502 493.705 193.798 494.478 194.188 495.353 194.569 496.227 194.865 497.102 195.255 497.875 195.635 498.75 196.025 499.625 196.321 500.491 196.702 501.365 197.092 502.147 197.481 503.013 197.871 503.888 198.159 504.762 198.548 505.535 198.938 506.409 199.326 507.284 199.615 508.159 200.004 509.025 200.393 509.806 200.782 510.681 201.164 511.547 201.46 512.422 201.849 513.203 202.231 514.069 202.619 514.944 203.009 515.819 203.297 516.592 203.686 517.467 204.076 518.341 204.465 519.216 204.855 520.091 205.143 520.864 205.532 521.738 205.922 522.612 206.311 523.479 206.692 524.26 207.081 525.127 207.378 526.001 207.759 526.875 208.148 527.75 208.538 528.523 208.927 529.398 209.215 530.273 209.604 531.147 209.994 531.92 210.384 532.795 210.773 533.67 211.154 534.536 211.45 535.317 211.84 536.192 212.229 537.058 212.61" stroke="#000000" stroke-width="1.26093" stroke-linecap="round" stroke-linejoin="round" stroke-miterlimit="10" fill="none" transform="matrix(1 0 0 1.00031 579 128.264)"/></g><g clip-path="url(#clip19)"><text font-family="Times New Roman,Times New Roman_MSFontService,sans-serif" font-style="italic" font-weight="400" font-size="266" transform="matrix(0 -0.0970251 0.0969949 0 639.331 377)">F</text><text font-family="Times New Roman,Times New Roman_MSFontService,sans-serif" font-weight="400" font-size="266" transform="matrix(0 -0.0970251 0.0969949 0 639.331 362)">(</text><text font-family="Times New Roman,Times New Roman_MSFontService,sans-serif" font-style="italic" font-weight="400" font-size="266" transform="matrix(0 -0.0970251 0.0969949 0 639.331 353)">x</text><text font-family="Times New Roman,Times New Roman_MSFontService,sans-serif" font-weight="400" font-size="266" transform="matrix(0 -0.0970251 0.0969949 0 639.331 341)">)</text></g><g clip-path="url(#clip20)"><text font-family="Times New Roman,Times New Roman_MSFontService,sans-serif" font-style="italic" font-weight="400" font-size="266" transform="matrix(0.0969949 0 0 0.0970251 897.628 580)">x</text></g></g></g></g></g><path d="M0 0 335.2 222.872" stroke="#000000" stroke-width="1.33333" stroke-linejoin="round" stroke-miterlimit="10" stroke-dasharray="10.6667 4" fill="none" fill-rule="evenodd" transform="matrix(1 0 0 -1 690.5 526.372)"/><path d="M1018.5 302.5C1018.5 298.082 1022.08 294.5 1026.5 294.5 1030.92 294.5 1034.5 298.082 1034.5 302.5 1034.5 306.918 1030.92 310.5 1026.5 310.5 1022.08 310.5 1018.5 306.918 1018.5 302.5Z" stroke="#000000" stroke-width="2.66667" stroke-linejoin="round" stroke-miterlimit="10" fill="#4F81BD" fill-rule="evenodd"/><text font-family="Cambria Math,Cambria Math_MSFontService,sans-serif" font-weight="400" font-size="21" transform="translate(897.982 260)">Δ</text><text font-family="Cambria Math,Cambria Math_MSFontService,sans-serif" font-weight="400" font-size="21" transform="translate(910.649 260)">𝑥</text><text font-family="Cambria Math,Cambria Math_MSFontService,sans-serif" font-weight="400" font-size="15" transform="translate(921.776 264)">max</text><text font-family="Cambria Math,Cambria Math_MSFontService,sans-serif" font-weight="400" font-size="21" transform="translate(954.329 260)">(</text><text font-family="Cambria Math,Cambria Math_MSFontService,sans-serif" font-weight="400" font-size="21" transform="translate(963.162 260)">𝑡</text><text font-family="Cambria Math,Cambria Math_MSFontService,sans-serif" font-weight="400" font-size="21" transform="translate(972.182 260)">)</text><text font-family="Cambria Math,Cambria Math_MSFontService,sans-serif" font-weight="400" font-size="21" transform="translate(986.942 260)">=</text><text font-family="Cambria Math,Cambria Math_MSFontService,sans-serif" font-weight="400" font-size="21" transform="translate(1011.41 260)">max</text><text font-family="Cambria Math,Cambria Math_MSFontService,sans-serif" font-weight="400" font-size="15" transform="translate(1008.87 273)">0</text><text font-family="Cambria Math,Cambria Math_MSFontService,sans-serif" font-weight="400" font-size="15" transform="translate(1017.87 273)">≤</text><text font-family="Cambria Math,Cambria Math_MSFontService,sans-serif" font-weight="400" font-size="15" transform="translate(1027.54 273)">𝜏</text><text font-family="Cambria Math,Cambria Math_MSFontService,sans-serif" font-weight="400" font-size="15" transform="translate(1035.7 273)">≤</text><text font-family="Cambria Math,Cambria Math_MSFontService,sans-serif" font-weight="400" font-size="15" transform="translate(1045.37 273)">𝑡</text><text font-family="Cambria Math,Cambria Math_MSFontService,sans-serif" font-weight="400" font-size="21" transform="translate(1056.18 260)">Δ</text><text font-family="Cambria Math,Cambria Math_MSFontService,sans-serif" font-weight="400" font-size="21" transform="translate(1068.84 260)">𝑥</text><path d="M1100.64 244.159C1102.63 244.685 1104.16 245.821 1105.23 247.568 1106.3 249.315 1106.84 251.422 1106.84 253.89 1106.84 256.364 1106.31 258.471 1105.24 260.211 1104.17 261.951 1102.64 263.084 1100.64 263.61L1100.39 262.821C1101.97 262.294 1103.14 261.255 1103.91 259.704 1104.68 258.152 1105.07 256.18 1105.07 253.787 1105.07 251.476 1104.68 249.557 1103.92 248.029 1103.15 246.502 1101.97 245.475 1100.36 244.948ZM1088.87 244.159 1089.15 244.948C1087.55 245.475 1086.36 246.502 1085.6 248.029 1084.83 249.557 1084.44 251.476 1084.44 253.787 1084.44 256.18 1084.83 258.152 1085.6 259.704 1086.36 261.255 1087.54 262.294 1089.12 262.821L1088.87 263.61C1086.87 263.084 1085.33 261.951 1084.27 260.211 1083.2 258.471 1082.67 256.364 1082.67 253.89 1082.67 251.422 1083.2 249.315 1084.27 247.568 1085.34 245.821 1086.88 244.685 1088.87 244.159Z" fill-rule="evenodd"/><text font-family="Cambria Math,Cambria Math_MSFontService,sans-serif" font-weight="400" font-size="21" transform="translate(1089.68 260)">𝜏</text><path d="M0.828271-0.560327 9.7935 12.692 8.13696 13.8127-0.828271 0.560327ZM13.1555 17.6616 14.2761 19.3182 12.6196 20.4388 11.4989 18.7823ZM17.6381 24.2878 18.7587 25.9444 17.1022 27.065 15.9815 25.4085ZM22.1207 30.914 31.0859 44.1663 29.4294 45.287 20.4642 32.0346ZM34.4479 49.136 35.5685 50.7925 33.912 51.9132 32.7914 50.2566ZM38.9305 55.7621 40.0512 57.4187 38.3946 58.5393 37.274 56.8828ZM43.4131 62.3883 52.3784 75.6406 50.7218 76.7613 41.7566 63.5089ZM55.7403 80.6103 56.861 82.2668 55.2044 83.3875 54.0838 81.7309ZM60.2229 87.2364 61.3436 88.893 59.6871 90.0136 58.5664 88.3571ZM64.7056 93.8626 73.6708 107.115 72.0142 108.236 63.049 94.9833ZM77.0328 112.085 78.1534 113.741 76.4969 114.862 75.3762 113.205ZM81.5154 118.711 82.636 120.367 80.9795 121.488 79.8588 119.831ZM85.998 125.337 94.9632 138.589 93.3067 139.71 84.3414 126.458ZM98.3252 143.559 99.4458 145.215 97.7893 146.336 96.6686 144.68ZM102.808 150.185 103.928 151.842 102.272 152.962 101.151 151.306ZM107.29 156.811 116.256 170.064 114.599 171.184 105.634 157.932ZM119.618 175.033 120.738 176.69 119.082 177.81 117.961 176.154ZM124.1 181.659 125.221 183.316 123.564 184.437 122.444 182.78ZM128.583 188.286 133.093 194.952 131.436 196.073 126.926 189.406ZM134.83 192.167 136 201.034 128.204 196.649Z" fill="#4F81BD" transform="matrix(1 0 0 -1 713 495.034)"/><path d="M908.325 286.054 923.457 291.254 922.807 293.145 907.675 287.946ZM929.131 293.204 931.022 293.854 930.372 295.745 928.481 295.095ZM936.697 295.803 938.588 296.453 937.938 298.345 936.047 297.695ZM944.262 298.403 959.394 303.603 958.744 305.494 943.613 300.295ZM965.068 305.553 966.96 306.203 966.31 308.094 964.418 307.444ZM972.634 308.152 974.526 308.802 973.876 310.694 971.984 310.044ZM980.2 310.752 995.332 315.952 994.682 317.843 979.55 312.644ZM1001.01 317.901 1002.9 318.551 1002.25 320.443 1000.36 319.793ZM1008.57 320.501 1010.46 321.151 1009.81 323.043 1007.92 322.393ZM1016.14 323.101 1031.27 328.301 1030.62 330.192 1015.49 324.992ZM1036.94 330.25 1038.83 330.9 1038.18 332.792 1036.29 332.142ZM1044.51 332.85 1046.4 333.5 1045.75 335.392 1043.86 334.742ZM1052.07 335.45 1067.21 340.65 1066.56 342.541 1051.43 337.341ZM1072.88 342.599 1074.77 343.249 1074.12 345.141 1072.23 344.491ZM1080.45 345.199 1082.34 345.849 1081.69 347.74 1079.8 347.091ZM1088.01 347.799 1102.52 352.785 1101.87 354.677 1087.36 349.69ZM1102.24 349.515 1108.5 355.897 1099.64 357.08Z" fill="#4F81BD"/><path d="M0.558817-0.829291 13.8275 8.11179 12.7098 9.77037-0.558817 0.829291ZM18.8032 11.4647 20.4618 12.5823 19.3442 14.2409 17.6856 13.1233ZM25.4375 15.9352 27.0961 17.0529 25.9785 18.7114 24.3199 17.5938ZM32.0719 20.4058 45.3405 29.3468 44.2229 31.0054 30.9542 22.0644ZM50.3163 32.6998 51.9748 33.8174 50.8572 35.476 49.1986 34.3583ZM56.9506 37.1703 58.6092 38.2879 57.4915 39.9465 55.833 38.8289ZM63.5849 41.6408 76.8536 50.5819 75.7359 52.2405 62.4673 43.2994ZM81.8293 53.9348 83.4879 55.0525 82.3702 56.711 80.7117 55.5934ZM88.4636 58.4054 90.1222 59.523 89.0046 61.1816 87.346 60.0639ZM95.0979 62.8759 108.367 71.817 107.249 73.4756 93.9803 64.5345ZM113.342 75.1699 115.001 76.2875 113.883 77.9461 112.225 76.8285ZM119.977 79.6404 121.635 80.7581 120.518 82.4166 118.859 81.299ZM126.611 84.111 139.88 93.052 138.762 94.7106 125.493 85.7696ZM144.855 96.405 146.514 97.5226 145.396 99.1812 143.738 98.0635ZM151.49 100.875 153.148 101.993 152.031 103.652 150.372 102.534ZM158.124 105.346 171.393 114.287 170.275 115.946 157.006 107.005ZM175.098 113.166 179.497 120.954 170.627 119.801Z" fill="#C00000" transform="matrix(1 0 0 -1 780 485.954)"/><path d="M929 471 1000.84 471" stroke="#4F81BD" stroke-width="2" stroke-linejoin="round" stroke-miterlimit="10" stroke-dasharray="16 6 2 6 2 6" fill="none" fill-rule="evenodd"/><path d="M929 497 1000.84 497" stroke="#C00000" stroke-width="2" stroke-linejoin="round" stroke-miterlimit="10" stroke-dasharray="16 6 2 6 2 6" fill="none" fill-rule="evenodd"/><text font-family="Cambria Math,Cambria Math_MSFontService,sans-serif" font-weight="400" font-size="16" transform="translate(1016.53 475)">Δ</text><text font-family="Cambria Math,Cambria Math_MSFontService,sans-serif" font-weight="400" font-size="16" transform="translate(1026.03 475)">𝑥</text><text font-family="Cambria Math,Cambria Math_MSFontService,sans-serif" font-weight="400" font-size="16" transform="translate(1039.46 475)">=</text><text font-family="Cambria Math,Cambria Math_MSFontService,sans-serif" font-weight="400" font-size="16" transform="translate(1055.91 475)">Δ</text><text font-family="Cambria Math,Cambria Math_MSFontService,sans-serif" font-weight="400" font-size="16" transform="translate(1065.41 475)">𝑥</text><text font-family="Cambria Math,Cambria Math_MSFontService,sans-serif" font-weight="400" font-size="12" transform="translate(1073.76 479)">max</text><text font-family="Cambria Math,Cambria Math_MSFontService,sans-serif" font-weight="400" font-size="16" transform="translate(1017.61 504)">Δ</text><text font-family="Cambria Math,Cambria Math_MSFontService,sans-serif" font-weight="400" font-size="16" transform="translate(1027.11 504)">𝑥</text><text font-family="Cambria Math,Cambria Math_MSFontService,sans-serif" font-weight="400" font-size="16" transform="translate(1040.54 504)">&lt;</text><text font-family="Cambria Math,Cambria Math_MSFontService,sans-serif" font-weight="400" font-size="16" transform="translate(1056.99 504)">Δ</text><text font-family="Cambria Math,Cambria Math_MSFontService,sans-serif" font-weight="400" font-size="16" transform="translate(1066.49 504)">𝑥</text><text font-family="Cambria Math,Cambria Math_MSFontService,sans-serif" font-weight="400" font-size="12" transform="translate(1074.83 508)">max</text></g></svg>