<svg width="799" height="284" xmlns="http://www.w3.org/2000/svg" xmlns:xlink="http://www.w3.org/1999/xlink" overflow="hidden"><defs><filter id="fx0" x="-10%" y="-10%" width="120%" height="120%" filterUnits="userSpaceOnUse" primitiveUnits="userSpaceOnUse"><feComponentTransfer color-interpolation-filters="sRGB"><feFuncR type="discrete" tableValues="0 0"/><feFuncG type="discrete" tableValues="0 0"/><feFuncB type="discrete" tableValues="0 0"/><feFuncA type="linear" slope="0.380392" intercept="0"/></feComponentTransfer><feGaussianBlur stdDeviation="1.39983 1.39983"/></filter><clipPath id="clip1"><rect x="267" y="139" width="799" height="284"/></clipPath><clipPath id="clip2"><path d="M276 226 276 327 981 327 981 226ZM267 139 1066 139 1066 423 267 423Z" fill-rule="evenodd" clip-rule="evenodd"/></clipPath><clipPath id="clip3"><rect x="1" y="1" width="717" height="115"/></clipPath><clipPath id="clip4"><rect x="0" y="0" width="719" height="115"/></clipPath></defs><g clip-path="url(#clip1)" transform="translate(-267 -139)"><g clip-path="url(#clip2)"><g clip-path="url(#clip3)" filter="url(#fx0)" transform="translate(269 221)"><g clip-path="url(#clip4)"><rect x="7" y="7.09973" width="705" height="101" stroke="#000000" stroke-width="2" stroke-linejoin="round" stroke-miterlimit="10" fill="#D9D9D9"/></g></g></g><rect x="276" y="226" width="705" height="101" stroke="#000000" stroke-width="2" stroke-linejoin="round" stroke-miterlimit="10" fill="#D9D9D9"/><path d="M1-3.0556e-06 1.00008 27.6922-0.999915 27.6922-1 3.0556e-06ZM4.00008 26.3588 0.000104987 34.3588-3.99992 26.3589Z" fill="#4A7EBB" transform="matrix(6.12323e-17 1 1 -6.12323e-17 276 208)"/><path d="M981.693 345 955.667 345 955.667 343 981.693 343ZM957 348 949 344 957 340Z" fill="#4A7EBB"/><path d="M992 226 1032.8 226" stroke="#000000" stroke-width="2" stroke-linejoin="round" stroke-miterlimit="10" fill="none" fill-rule="evenodd"/><path d="M992 327 1032.8 327" stroke="#000000" stroke-width="2" stroke-linejoin="round" stroke-miterlimit="10" fill="none" fill-rule="evenodd"/><path d="M1 1.97995 1.0001 98.9685-0.999897 98.9685-0.999998 1.97996ZM-5.53044 9.47613 4.98328e-09-0.0046346 5.53046 9.47612C5.80874 9.95317 5.6476 10.5655 5.17055 10.8438 4.6935 11.1221 4.08118 10.9609 3.8029 10.4839L-0.863776 2.48387 0.863781 2.48387-3.80288 10.4839C-4.08116 10.9609-4.69347 11.1221-5.17053 10.8438-5.64758 10.5655-5.80872 9.95319-5.53044 9.47613ZM5.53054 91.4723 0.000105187 100.953-5.53035 91.4723C-5.80863 90.9953-5.6475 90.383-5.17044 90.1047-4.69339 89.8264-4.08107 89.9875-3.80279 90.4646L0.863881 98.4646-0.863676 98.4646 3.80298 90.4646C4.08126 89.9875 4.69358 89.8264 5.17063 90.1047 5.64768 90.3829 5.80882 90.9953 5.53054 91.4723Z" fill="#4F81BD" transform="matrix(1 0 0 -1 1012 326.948)"/><text font-family="Times New Roman,Times New Roman_MSFontService,sans-serif" font-style="italic" font-weight="400" font-size="32" transform="translate(1037.61 288)">l</text><text font-family="Times New Roman,Times New Roman_MSFontService,sans-serif" font-style="italic" font-weight="400" font-size="32" transform="translate(619.592 180)">F</text><text font-family="Times New Roman,Times New Roman_MSFontService,sans-serif" font-style="italic" font-weight="400" font-size="32" transform="translate(618.862 395)">F</text><path d="M276 276 981.649 276" stroke="#4F81BD" stroke-width="2" stroke-linejoin="round" stroke-miterlimit="10" stroke-dasharray="8 6" fill="none" fill-rule="evenodd"/><path d="M276 312 981.649 312" stroke="#4F81BD" stroke-width="2" stroke-linejoin="round" stroke-miterlimit="10" stroke-dasharray="8 6" fill="none" fill-rule="evenodd"/><path d="M276 240 981.649 240" stroke="#4F81BD" stroke-width="2" stroke-linejoin="round" stroke-miterlimit="10" stroke-dasharray="8 6" fill="none" fill-rule="evenodd"/><path d="M0 0 0.000104987 101.3" stroke="#4F81BD" stroke-width="2" stroke-linejoin="round" stroke-miterlimit="10" stroke-dasharray="8 6" fill="none" fill-rule="evenodd" transform="matrix(1 0 0 -1 876 327.3)"/><path d="M0 0 0.000104987 101.3" stroke="#4F81BD" stroke-width="2" stroke-linejoin="round" stroke-miterlimit="10" stroke-dasharray="8 6" fill="none" fill-rule="evenodd" transform="matrix(1 0 0 -1 342 327.3)"/><path d="M0 0 0.000104987 101.3" stroke="#4F81BD" stroke-width="2" stroke-linejoin="round" stroke-miterlimit="10" stroke-dasharray="8 6" fill="none" fill-rule="evenodd" transform="matrix(1 0 0 -1 723 327.3)"/><path d="M0 0 0.000104987 101.3" stroke="#4F81BD" stroke-width="2" stroke-linejoin="round" stroke-miterlimit="10" stroke-dasharray="8 6" fill="none" fill-rule="evenodd" transform="matrix(1 0 0 -1 761 327.3)"/><path d="M0 0 0.000104987 101.3" stroke="#4F81BD" stroke-width="2" stroke-linejoin="round" stroke-miterlimit="10" stroke-dasharray="8 6" fill="none" fill-rule="evenodd" transform="matrix(1 0 0 -1 800 327.3)"/><path d="M0 0 0.000104987 101.3" stroke="#4F81BD" stroke-width="2" stroke-linejoin="round" stroke-miterlimit="10" stroke-dasharray="8 6" fill="none" fill-rule="evenodd" transform="matrix(1 0 0 -1 838 327.3)"/><path d="M0 0 0.000104987 101.3" stroke="#4F81BD" stroke-width="2" stroke-linejoin="round" stroke-miterlimit="10" stroke-dasharray="8 6" fill="none" fill-rule="evenodd" transform="matrix(1 0 0 -1 914 327.3)"/><path d="M0 0 0.000104987 101.3" stroke="#4F81BD" stroke-width="2" stroke-linejoin="round" stroke-miterlimit="10" stroke-dasharray="8 6" fill="none" fill-rule="evenodd" transform="matrix(1 0 0 -1 495 327.3)"/><path d="M0 0 0.000104987 101.3" stroke="#4F81BD" stroke-width="2" stroke-linejoin="round" stroke-miterlimit="10" stroke-dasharray="8 6" fill="none" fill-rule="evenodd" transform="matrix(1 0 0 -1 571 327.3)"/><path d="M0 0 0.000104987 101.3" stroke="#4F81BD" stroke-width="2" stroke-linejoin="round" stroke-miterlimit="10" stroke-dasharray="8 6" fill="none" fill-rule="evenodd" transform="matrix(1 0 0 -1 609 327.3)"/><path d="M0 0 0.000104987 101.3" stroke="#4F81BD" stroke-width="2" stroke-linejoin="round" stroke-miterlimit="10" stroke-dasharray="8 6" fill="none" fill-rule="evenodd" transform="matrix(1 0 0 -1 647 327.3)"/><path d="M0 0 0.000104987 101.3" stroke="#4F81BD" stroke-width="2" stroke-linejoin="round" stroke-miterlimit="10" stroke-dasharray="8 6" fill="none" fill-rule="evenodd" transform="matrix(1 0 0 -1 685 327.3)"/><path d="M0 0 0.000104987 101.3" stroke="#4F81BD" stroke-width="2" stroke-linejoin="round" stroke-miterlimit="10" stroke-dasharray="8 6" fill="none" fill-rule="evenodd" transform="matrix(1 0 0 -1 952 327.3)"/><path d="M0 0 0.000104987 101.3" stroke="#4F81BD" stroke-width="2" stroke-linejoin="round" stroke-miterlimit="10" stroke-dasharray="8 6" fill="none" fill-rule="evenodd" transform="matrix(1 0 0 -1 304 327.3)"/><path d="M276 258 981.649 258" stroke="#4F81BD" stroke-width="2" stroke-linejoin="round" stroke-miterlimit="10" stroke-dasharray="8 6" fill="none" fill-rule="evenodd"/><path d="M276 294 981.649 294" stroke="#4F81BD" stroke-width="2" stroke-linejoin="round" stroke-miterlimit="10" stroke-dasharray="8 6" fill="none" fill-rule="evenodd"/><path d="M0 0 0.000104987 101.3" stroke="#4F81BD" stroke-width="2" stroke-linejoin="round" stroke-miterlimit="10" stroke-dasharray="8 6" fill="none" fill-rule="evenodd" transform="matrix(1 0 0 -1 380 327.3)"/><path d="M0 0 0.000104987 101.3" stroke="#4F81BD" stroke-width="2" stroke-linejoin="round" stroke-miterlimit="10" stroke-dasharray="8 6" fill="none" fill-rule="evenodd" transform="matrix(1 0 0 -1 418 327.3)"/><path d="M0 0 0.000104987 101.3" stroke="#4F81BD" stroke-width="2" stroke-linejoin="round" stroke-miterlimit="10" stroke-dasharray="8 6" fill="none" fill-rule="evenodd" transform="matrix(1 0 0 -1 456 327.3)"/><path d="M0 0 0.000104987 101.3" stroke="#4F81BD" stroke-width="2" stroke-linejoin="round" stroke-miterlimit="10" stroke-dasharray="8 6" fill="none" fill-rule="evenodd" transform="matrix(1 0 0 -1 533 327.3)"/><path d="M310.359 345 282.667 345 282.667 343 310.359 343ZM284 348 276 344 284 340Z" fill="#4A7EBB"/><path d="M371.359 345 343.667 345 343.667 343 371.359 343ZM345 348 337 344 345 340Z" fill="#4A7EBB"/><path d="M432.359 345 404.667 345 404.667 343 432.359 343ZM406 348 398 344 406 340Z" fill="#4A7EBB"/><path d="M493.359 345 465.667 345 465.667 343 493.359 343ZM467 348 459 344 467 340Z" fill="#4A7EBB"/><path d="M554.359 345 526.667 345 526.667 343 554.359 343ZM528 348 520 344 528 340Z" fill="#4A7EBB"/><path d="M616.359 345 588.667 345 588.667 343 616.359 343ZM590 348 582 344 590 340Z" fill="#4A7EBB"/><path d="M677.359 345 649.667 345 649.667 343 677.359 343ZM651 348 643 344 651 340Z" fill="#4A7EBB"/><path d="M738.359 345 710.667 345 710.667 343 738.359 343ZM712 348 704 344 712 340Z" fill="#4A7EBB"/><path d="M799.359 345 771.667 345 771.667 343 799.359 343ZM773 348 765 344 773 340Z" fill="#4A7EBB"/><path d="M860.359 345 832.667 345 832.667 343 860.359 343ZM834 348 826 344 834 340Z" fill="#4A7EBB"/><path d="M922.359 345 894.667 345 894.667 343 922.359 343ZM896 348 888 344 896 340Z" fill="#4A7EBB"/><path d="M1-3.21132e-06 1.00008 26.026-0.999916 26.026-1 3.21132e-06ZM4.00008 24.6927 0.000104987 32.6927-3.99992 24.6927Z" fill="#4A7EBB" transform="matrix(1.83697e-16 1 1 -1.83697e-16 949 208)"/><path d="M1-3.0556e-06 1.00008 27.6922-0.999915 27.6922-1 3.0556e-06ZM4.00008 26.3588 0.000104987 34.3588-3.99992 26.3589Z" fill="#4A7EBB" transform="matrix(6.12323e-17 1 1 -6.12323e-17 337 208)"/><path d="M1-3.0556e-06 1.00008 27.6922-0.999915 27.6922-1 3.0556e-06ZM4.00008 26.3588 0.000104987 34.3588-3.99992 26.3589Z" fill="#4A7EBB" transform="matrix(6.12323e-17 1 1 -6.12323e-17 398 208)"/><path d="M1-3.0556e-06 1.00008 27.6922-0.999915 27.6922-1 3.0556e-06ZM4.00008 26.3588 0.000104987 34.3588-3.99992 26.3589Z" fill="#4A7EBB" transform="matrix(6.12323e-17 1 1 -6.12323e-17 459 208)"/><path d="M1-3.0556e-06 1.00008 27.6922-0.999915 27.6922-1 3.0556e-06ZM4.00008 26.3588 0.000104987 34.3588-3.99992 26.3589Z" fill="#4A7EBB" transform="matrix(6.12323e-17 1 1 -6.12323e-17 520 208)"/><path d="M1-3.0556e-06 1.00008 27.6922-0.999915 27.6922-1 3.0556e-06ZM4.00008 26.3588 0.000104987 34.3588-3.99992 26.3589Z" fill="#4A7EBB" transform="matrix(6.12323e-17 1 1 -6.12323e-17 582 208)"/><path d="M1-3.0556e-06 1.00008 27.6922-0.999915 27.6922-1 3.0556e-06ZM4.00008 26.3588 0.000104987 34.3588-3.99992 26.3589Z" fill="#4A7EBB" transform="matrix(6.12323e-17 1 1 -6.12323e-17 643 208)"/><path d="M1-3.0556e-06 1.00008 27.6922-0.999915 27.6922-1 3.0556e-06ZM4.00008 26.3588 0.000104987 34.3588-3.99992 26.3589Z" fill="#4A7EBB" transform="matrix(6.12323e-17 1 1 -6.12323e-17 704 208)"/><path d="M1-3.0556e-06 1.00008 27.6922-0.999915 27.6922-1 3.0556e-06ZM4.00008 26.3588 0.000104987 34.3588-3.99992 26.3589Z" fill="#4A7EBB" transform="matrix(6.12323e-17 1 1 -6.12323e-17 765 208)"/><path d="M1-3.0556e-06 1.00008 27.6922-0.999915 27.6922-1 3.0556e-06ZM4.00008 26.3588 0.000104987 34.3588-3.99992 26.3589Z" fill="#4A7EBB" transform="matrix(6.12323e-17 1 1 -6.12323e-17 826 208)"/><path d="M1-3.0556e-06 1.00008 27.6922-0.999915 27.6922-1 3.0556e-06ZM4.00008 26.3588 0.000104987 34.3588-3.99992 26.3589Z" fill="#4A7EBB" transform="matrix(6.12323e-17 1 1 -6.12323e-17 888 208)"/></g></svg>