<svg width="864" height="224" xmlns="http://www.w3.org/2000/svg" xmlns:xlink="http://www.w3.org/1999/xlink" overflow="hidden"><defs><filter id="fx0" x="-10%" y="-10%" width="120%" height="120%" filterUnits="userSpaceOnUse" primitiveUnits="userSpaceOnUse"><feComponentTransfer color-interpolation-filters="sRGB"><feFuncR type="discrete" tableValues="0 0"/><feFuncG type="discrete" tableValues="0 0"/><feFuncB type="discrete" tableValues="0 0"/><feFuncA type="linear" slope="0.380392" intercept="0"/></feComponentTransfer><feGaussianBlur stdDeviation="1.39983 1.39983"/></filter><clipPath id="clip1"><rect x="218" y="166" width="864" height="224"/></clipPath><clipPath id="clip2"><path d="M276 226 276 327 981 327 981 226ZM218 166 1082 166 1082 390 218 390Z" fill-rule="evenodd" clip-rule="evenodd"/></clipPath><clipPath id="clip3"><rect x="1" y="1" width="717" height="115"/></clipPath><clipPath id="clip4"><rect x="0" y="0" width="719" height="115"/></clipPath></defs><g clip-path="url(#clip1)" transform="translate(-218 -166)"><g clip-path="url(#clip2)"><g clip-path="url(#clip3)" filter="url(#fx0)" transform="translate(269 221)"><g clip-path="url(#clip4)"><rect x="7" y="7.09973" width="705" height="101" stroke="#000000" stroke-width="2" stroke-linejoin="round" stroke-miterlimit="10" fill="#D9D9D9"/></g></g></g><rect x="276" y="226" width="705" height="101" stroke="#000000" stroke-width="2" stroke-linejoin="round" stroke-miterlimit="10" fill="#D9D9D9"/><path d="M1-3.0556e-06 1.00008 27.6922-0.999915 27.6922-1 3.0556e-06ZM4.00008 26.3588 0.000104987 34.3588-3.99992 26.3589Z" fill="#4A7EBB" transform="matrix(1 0 0 -1 276 226.359)"/><path d="M277 327 277 353.026 275 353.026 275 327ZM280 351.693 276 359.693 272 351.693Z" fill="#4A7EBB"/><path d="M1008 226 1048.8 226" stroke="#000000" stroke-width="2" stroke-linejoin="round" stroke-miterlimit="10" fill="none" fill-rule="evenodd"/><path d="M1008 327 1048.8 327" stroke="#000000" stroke-width="2" stroke-linejoin="round" stroke-miterlimit="10" fill="none" fill-rule="evenodd"/><path d="M1 1.97995 1.0001 98.9685-0.999897 98.9685-0.999998 1.97996ZM-5.53044 9.47613 4.98328e-09-0.0046346 5.53046 9.47612C5.80874 9.95317 5.6476 10.5655 5.17055 10.8438 4.6935 11.1221 4.08118 10.9609 3.8029 10.4839L-0.863776 2.48387 0.863781 2.48387-3.80288 10.4839C-4.08116 10.9609-4.69347 11.1221-5.17053 10.8438-5.64758 10.5655-5.80872 9.95319-5.53044 9.47613ZM5.53054 91.4723 0.000105187 100.953-5.53035 91.4723C-5.80863 90.9953-5.6475 90.383-5.17044 90.1047-4.69339 89.8264-4.08107 89.9875-3.80279 90.4646L0.863881 98.4646-0.863676 98.4646 3.80298 90.4646C4.08126 89.9875 4.69358 89.8264 5.17063 90.1047 5.64768 90.3829 5.80882 90.9953 5.53054 91.4723Z" fill="#4F81BD" transform="matrix(1 0 0 -1 1028 326.948)"/><text font-family="Times New Roman,Times New Roman_MSFontService,sans-serif" font-style="italic" font-weight="400" font-size="32" transform="translate(1053.61 288)">l</text><text font-family="Times New Roman,Times New Roman_MSFontService,sans-serif" font-style="italic" font-weight="400" font-size="32" transform="translate(238.013 207)">F</text><text font-family="Times New Roman,Times New Roman_MSFontService,sans-serif" font-style="italic" font-weight="400" font-size="32" transform="translate(238.013 363)">F</text><path d="M0 0 19.0343 8.78709" stroke="#000000" stroke-width="2" stroke-linejoin="round" stroke-miterlimit="10" fill="none" fill-rule="evenodd" transform="matrix(-1 0 0 1 1001.03 218)"/><path d="M0 0 19.0343 8.78709" stroke="#000000" stroke-width="2" stroke-linejoin="round" stroke-miterlimit="10" fill="none" fill-rule="evenodd" transform="matrix(-1 0 0 1 1001.03 233)"/><path d="M0 0 19.0343 8.78709" stroke="#000000" stroke-width="2" stroke-linejoin="round" stroke-miterlimit="10" fill="none" fill-rule="evenodd" transform="matrix(-1 0 0 1 1001.03 247)"/><path d="M0 0 19.0343 8.78709" stroke="#000000" stroke-width="2" stroke-linejoin="round" stroke-miterlimit="10" fill="none" fill-rule="evenodd" transform="matrix(-1 0 0 1 1001.03 261)"/><path d="M0 0 19.0343 8.78709" stroke="#000000" stroke-width="2" stroke-linejoin="round" stroke-miterlimit="10" fill="none" fill-rule="evenodd" transform="matrix(-1 0 0 1 1001.03 276)"/><path d="M0 0 19.0343 8.78709" stroke="#000000" stroke-width="2" stroke-linejoin="round" stroke-miterlimit="10" fill="none" fill-rule="evenodd" transform="matrix(-1 0 0 1 1001.03 290)"/><path d="M0 0 19.0343 8.78709" stroke="#000000" stroke-width="2" stroke-linejoin="round" stroke-miterlimit="10" fill="none" fill-rule="evenodd" transform="matrix(-1 0 0 1 1001.03 304)"/><path d="M0 0 19.0343 8.78709" stroke="#000000" stroke-width="2" stroke-linejoin="round" stroke-miterlimit="10" fill="none" fill-rule="evenodd" transform="matrix(-1 0 0 1 1001.03 319)"/><path d="M276 276 981.649 276" stroke="#4F81BD" stroke-width="2" stroke-linejoin="round" stroke-miterlimit="10" stroke-dasharray="8 6" fill="none" fill-rule="evenodd"/><path d="M276 312 981.649 312" stroke="#4F81BD" stroke-width="2" stroke-linejoin="round" stroke-miterlimit="10" stroke-dasharray="8 6" fill="none" fill-rule="evenodd"/><path d="M276 240 981.649 240" stroke="#4F81BD" stroke-width="2" stroke-linejoin="round" stroke-miterlimit="10" stroke-dasharray="8 6" fill="none" fill-rule="evenodd"/><path d="M0 0 0.000104987 101.3" stroke="#4F81BD" stroke-width="2" stroke-linejoin="round" stroke-miterlimit="10" stroke-dasharray="8 6" fill="none" fill-rule="evenodd" transform="matrix(1 0 0 -1 876 327.3)"/><path d="M0 0 0.000104987 101.3" stroke="#4F81BD" stroke-width="2" stroke-linejoin="round" stroke-miterlimit="10" stroke-dasharray="8 6" fill="none" fill-rule="evenodd" transform="matrix(1 0 0 -1 342 327.3)"/><path d="M0 0 0.000104987 101.3" stroke="#4F81BD" stroke-width="2" stroke-linejoin="round" stroke-miterlimit="10" stroke-dasharray="8 6" fill="none" fill-rule="evenodd" transform="matrix(1 0 0 -1 723 327.3)"/><path d="M0 0 0.000104987 101.3" stroke="#4F81BD" stroke-width="2" stroke-linejoin="round" stroke-miterlimit="10" stroke-dasharray="8 6" fill="none" fill-rule="evenodd" transform="matrix(1 0 0 -1 761 327.3)"/><path d="M0 0 0.000104987 101.3" stroke="#4F81BD" stroke-width="2" stroke-linejoin="round" stroke-miterlimit="10" stroke-dasharray="8 6" fill="none" fill-rule="evenodd" transform="matrix(1 0 0 -1 800 327.3)"/><path d="M0 0 0.000104987 101.3" stroke="#4F81BD" stroke-width="2" stroke-linejoin="round" stroke-miterlimit="10" stroke-dasharray="8 6" fill="none" fill-rule="evenodd" transform="matrix(1 0 0 -1 838 327.3)"/><path d="M0 0 0.000104987 101.3" stroke="#4F81BD" stroke-width="2" stroke-linejoin="round" stroke-miterlimit="10" stroke-dasharray="8 6" fill="none" fill-rule="evenodd" transform="matrix(1 0 0 -1 914 327.3)"/><path d="M0 0 0.000104987 101.3" stroke="#4F81BD" stroke-width="2" stroke-linejoin="round" stroke-miterlimit="10" stroke-dasharray="8 6" fill="none" fill-rule="evenodd" transform="matrix(1 0 0 -1 495 327.3)"/><path d="M0 0 0.000104987 101.3" stroke="#4F81BD" stroke-width="2" stroke-linejoin="round" stroke-miterlimit="10" stroke-dasharray="8 6" fill="none" fill-rule="evenodd" transform="matrix(1 0 0 -1 571 327.3)"/><path d="M0 0 0.000104987 101.3" stroke="#4F81BD" stroke-width="2" stroke-linejoin="round" stroke-miterlimit="10" stroke-dasharray="8 6" fill="none" fill-rule="evenodd" transform="matrix(1 0 0 -1 609 327.3)"/><path d="M0 0 0.000104987 101.3" stroke="#4F81BD" stroke-width="2" stroke-linejoin="round" stroke-miterlimit="10" stroke-dasharray="8 6" fill="none" fill-rule="evenodd" transform="matrix(1 0 0 -1 647 327.3)"/><path d="M0 0 0.000104987 101.3" stroke="#4F81BD" stroke-width="2" stroke-linejoin="round" stroke-miterlimit="10" stroke-dasharray="8 6" fill="none" fill-rule="evenodd" transform="matrix(1 0 0 -1 685 327.3)"/><path d="M0 0 0.000104987 101.3" stroke="#4F81BD" stroke-width="2" stroke-linejoin="round" stroke-miterlimit="10" stroke-dasharray="8 6" fill="none" fill-rule="evenodd" transform="matrix(1 0 0 -1 952 327.3)"/><path d="M0 0 0.000104987 101.3" stroke="#4F81BD" stroke-width="2" stroke-linejoin="round" stroke-miterlimit="10" stroke-dasharray="8 6" fill="none" fill-rule="evenodd" transform="matrix(1 0 0 -1 304 327.3)"/><path d="M276 258 981.649 258" stroke="#4F81BD" stroke-width="2" stroke-linejoin="round" stroke-miterlimit="10" stroke-dasharray="8 6" fill="none" fill-rule="evenodd"/><path d="M276 294 981.649 294" stroke="#4F81BD" stroke-width="2" stroke-linejoin="round" stroke-miterlimit="10" stroke-dasharray="8 6" fill="none" fill-rule="evenodd"/><path d="M0 0 0.000104987 101.3" stroke="#4F81BD" stroke-width="2" stroke-linejoin="round" stroke-miterlimit="10" stroke-dasharray="8 6" fill="none" fill-rule="evenodd" transform="matrix(1 0 0 -1 380 327.3)"/><path d="M0 0 0.000104987 101.3" stroke="#4F81BD" stroke-width="2" stroke-linejoin="round" stroke-miterlimit="10" stroke-dasharray="8 6" fill="none" fill-rule="evenodd" transform="matrix(1 0 0 -1 418 327.3)"/><path d="M0 0 0.000104987 101.3" stroke="#4F81BD" stroke-width="2" stroke-linejoin="round" stroke-miterlimit="10" stroke-dasharray="8 6" fill="none" fill-rule="evenodd" transform="matrix(1 0 0 -1 456 327.3)"/><path d="M0 0 0.000104987 101.3" stroke="#4F81BD" stroke-width="2" stroke-linejoin="round" stroke-miterlimit="10" stroke-dasharray="8 6" fill="none" fill-rule="evenodd" transform="matrix(1 0 0 -1 533 327.3)"/><text font-family="Times New Roman,Times New Roman_MSFontService,sans-serif" font-weight="700" font-size="24" transform="translate(567.098 357)">Spring system</text></g></svg>